<?xml version="1.0"?>
<svg xmlns:rdf="http://www.w3.org/1999/02/22-rdf-syntax-ns#" xmlns="http://www.w3.org/2000/svg" xmlns:cc="http://web.resource.org/cc/" xmlns:xlink="http://www.w3.org/1999/xlink" xmlns:dc="http://purl.org/dc/elements/1.1/" xmlns:svg="http://www.w3.org/2000/svg" id="svg1" height="80pt" width="80pt">
  <defs id="defs3">
    <linearGradient id="linearGradient1580" x2=".55446" y1=".025641" x1=".049505" y2=".41538">
      <stop id="stop1576" stop-color="#fff" stop-opacity=".5" offset="0"/>
      <stop id="stop1577" stop-color="#fff" stop-opacity="0" offset="1"/>
    </linearGradient>
  </defs>
  <g id="g1581" transform="translate(-143.83 -267.59)" fill-rule="evenodd">
    <path id="path908" stroke="#000" stroke-width="1pt" d="m195.09 278.47c-6.75 0-12.21 5.56-12.21 12.37 0 3.87 4.18 9.17 4.62 9.44 2.51 2.77 6.4 11.15 5.62 17.78-6.29 0.21-14.75-2.66-17.24-5.44-0.17-0.12-6.1-5.21-10.19-5.21-6.82 0-12.38 5.47-12.38 12.21 0 6.76 5.56 12.22 12.38 12.22 3.87 0 9.16-4.18 9.43-4.62 2.8-2.54 11.34-6.51 18-5.63 0.12 2.1-0.36 29.8-2.03 31.19-3.59 3.01-8.15 2.81-8.15 2.81l0.09 3.29 23.81-0.1 0.1-3.28s-4.53 0.23-8.13-2.78c-1.65-1.39-2.23-30.34-2.25-31h0.19v0.03c6.3-0.22 14.78 2.66 17.28 5.44 0.17 0.12 6.1 5.22 10.19 5.22 6.82 0 12.37-5.47 12.37-12.22s-5.55-12.22-12.37-12.22c-3.87 0-9.16 4.18-9.44 4.62-2.79 2.54-11.34 6.52-18 5.63v0.09c-0.44-2.98 2.54-14.78 5.31-17.28 0.12-0.17 5.22-6.1 5.22-10.19 0-6.81-5.47-12.37-12.22-12.37z"/>
    <path id="path1579" fill="url(#linearGradient1580)" d="m195.08 278.34c-6.75 0-12.22 5.56-12.22 12.37 0 3.88 4.18 9.17 4.63 9.44 2.51 2.77 6.4 11.15 5.62 17.78-6.29 0.21-14.75-2.66-17.25-5.43-0.17-0.12-6.09-5.22-10.19-5.22-6.81 0-12.37 5.47-12.37 12.22s5.56 12.21 12.37 12.21c3.88 0 9.17-4.18 9.44-4.62 2.8-2.54 11.34-6.51 18-5.63 0.11 2.1-0.36 29.8-2.03 31.19-3.6 3.02-8.16 2.81-8.16 2.81l0.1 3.29 23.81-0.1 0.09-3.28s-4.52 0.23-8.12-2.78c-1.66-1.39-2.24-30.34-2.25-31h0.19v0.03c6.3-0.22 14.78 2.66 17.28 5.44 0.17 0.12 6.1 5.22 10.19 5.22 6.81 0 12.37-5.47 12.37-12.22s-5.56-12.22-12.37-12.22c-3.87 0-9.17 4.18-9.44 4.62-2.8 2.54-11.34 6.52-18 5.63v0.09c-0.44-2.98 2.53-14.78 5.31-17.28 0.12-0.17 5.22-6.1 5.22-10.19 0-6.81-5.47-12.37-12.22-12.37z"/>
  </g>
  <metadata>
    <rdf:RDF>
      <cc:Work>
        <dc:format>image/svg+xml</dc:format>
        <dc:type rdf:resource="http://purl.org/dc/dcmitype/StillImage"/>
        <cc:license rdf:resource="http://creativecommons.org/licenses/publicdomain/"/>
        <dc:publisher>
          <cc:Agent rdf:about="http://openclipart.org/">
            <dc:title>Openclipart</dc:title>
          </cc:Agent>
        </dc:publisher>
        <dc:title>Card symbols: Club</dc:title>
        <dc:date>2009-03-10T13:16:31</dc:date>
        <dc:description>Club symbol for playing cards</dc:description>
        <dc:source>http://openclipart.org/detail/22069/card-symbols:-club-by-nicubunu</dc:source>
        <dc:creator>
          <cc:Agent>
            <dc:title>nicubunu</dc:title>
          </cc:Agent>
        </dc:creator>
        <dc:subject>
          <rdf:Bag>
            <rdf:li>cards</rdf:li>
            <rdf:li>clip art</rdf:li>
            <rdf:li>clipart</rdf:li>
            <rdf:li>gambling</rdf:li>
            <rdf:li>game</rdf:li>
            <rdf:li>image</rdf:li>
            <rdf:li>media</rdf:li>
            <rdf:li>play</rdf:li>
            <rdf:li>playing cards</rdf:li>
            <rdf:li>png</rdf:li>
            <rdf:li>public domain</rdf:li>
            <rdf:li>svg</rdf:li>
            <rdf:li>symbol</rdf:li>
          </rdf:Bag>
        </dc:subject>
      </cc:Work>
      <cc:License rdf:about="http://creativecommons.org/licenses/publicdomain/">
        <cc:permits rdf:resource="http://creativecommons.org/ns#Reproduction"/>
        <cc:permits rdf:resource="http://creativecommons.org/ns#Distribution"/>
        <cc:permits rdf:resource="http://creativecommons.org/ns#DerivativeWorks"/>
      </cc:License>
    </rdf:RDF>
  </metadata>
</svg>
