<?xml version="1.0"?>
<svg xmlns:rdf="http://www.w3.org/1999/02/22-rdf-syntax-ns#" xmlns="http://www.w3.org/2000/svg" xmlns:cc="http://web.resource.org/cc/" xmlns:xlink="http://www.w3.org/1999/xlink" xmlns:dc="http://purl.org/dc/elements/1.1/" xmlns:svg="http://www.w3.org/2000/svg" id="svg2" viewBox="0 0 48 48" version="1.0">
  <defs id="defs4">
    <radialGradient id="R1" gradientUnits="userSpaceOnUse" cy="25.531" cx="17.312" gradientTransform="matrix(1 0 0 .35161 0 16.554)" r="9.6875">
      <stop id="s3" offset="0"/>
      <stop id="s4" stop-opacity="0" offset="1"/>
    </radialGradient>
    <linearGradient id="G4" y2="9.5726" gradientUnits="userSpaceOnUse" x2="9.588" gradientTransform="matrix(2.0123 0 0 1.08 -1.4295 -2.7348)" y1="34.377" x1="12.609">
      <stop id="s1" stop-color="#f5a108" stop-opacity="0" offset="0"/>
      <stop id="s2" stop-color="#fefdc3" stop-opacity=".74" offset="1"/>
    </linearGradient>
    <linearGradient id="G5" y2="-4.0458" gradientUnits="userSpaceOnUse" x2="18.095" gradientTransform="matrix(1 0 0 1.0033 0 -.079931)" y1="36.009" x1="37.522">
      <stop id="s5" stop-color="#fff" offset="0"/>
      <stop id="s6" stop-color="#fff" stop-opacity="0" offset="1"/>
    </linearGradient>
  </defs>
  <path id="s" opacity=".4" d="m27 25.531a9.6875 3.4062 0 1 1 -19.375 0 9.6875 3.4062 0 1 1 19.375 0z" fill="url(#R1)" transform="matrix(2.1829 0 0 2.19 -13.792 -18.891)"/>
  <path id="p1" stroke-linejoin="round" d="m24 4.5312c-0.146 0-0.231 0.0356-0.344 0.125 0 0.0001-4.131 3.348-8.281 7.5938-2.075 2.123-4.177 4.472-5.75 6.75-0.5897 0.854-1.0824 1.708-1.5 2.531-0.2884 0.518-0.4942 1.079-0.7188 1.625-0.1839 0.494-0.2411 0.989-0.3437 1.5-0.097 0.455-0.0316 0.919-0.0313 1.375 0.0262 0.231 0.0834 0.46 0.125 0.688 0.0403 0.357 0.206 0.691 0.3126 1.031 0.3547 0.869 0.8786 1.622 1.5624 2.25 1.2398 1.138 2.9118 1.847 4.6568 2.219 2.509 0.534 5.152 0.269 7.124-0.781 0.409-0.129 0.741-0.391 1.094-0.626-0.041 0.42-0.3 0.727-0.468 1.094-1.092 1.56-2.683 2.679-4.188 3.813-0.696 0.522-1.266 0.937-1.562 1.469-0.078 0.142-0.048 0.297 0.031 0.437 0.005 0.009-0.006 0.022 0 0.031 0.094 0.145 0.258 0.252 0.437 0.25h15.688c0.179 0.002 0.343-0.105 0.437-0.25 0.006-0.009-0.005-0.022 0-0.031 0.079-0.14 0.109-0.295 0.031-0.437-0.296-0.532-0.866-0.947-1.562-1.469-1.553-1.106-3.023-2.304-4.188-3.813-0.277-0.322-0.32-0.719-0.468-1.094 0.546 0.458 1.205 0.68 1.844 0.969 1.871 0.752 4.169 0.908 6.374 0.438 1.745-0.372 3.417-1.081 4.657-2.219 0.684-0.628 1.207-1.381 1.562-2.25 0.143-0.349 0.268-0.74 0.344-1.125 0.117-0.398 0.092-0.811 0.125-1.219 0-0.475-0.068-0.965-0.188-1.468-0.035-0.258-0.146-0.502-0.218-0.75-0.491-1.514-1.345-2.869-2.219-4.188-1.573-2.278-3.675-4.627-5.75-6.75-4.15-4.2458-8.281-7.5938-8.281-7.5938-0.11-0.0894-0.198-0.125-0.344-0.125z" stroke="#000" stroke-width="2" fill="none"/>
  <path id="p2" fill="#1b1e20" d="m24 4.5088c-0.086-0.0229-0.266 0.0742-0.344 0.1478 0 0-4.131 3.3473-8.281 7.5934-2.075 2.123-4.177 4.474-5.75 6.753-0.5897 0.854-1.0824 1.697-1.5 2.52-0.2884 0.518-0.4942 1.073-0.7188 1.619-0.2662 0.734-0.3248 1.502-0.4062 2.271-0.0267 0.809 0.2368 1.571 0.4687 2.334 0.3548 0.869 0.8787 1.613 1.5625 2.241 1.2398 1.138 2.9118 1.869 4.6568 2.24 2.509 0.535 5.152 0.273 7.124-0.778 0.409-0.128 0.741-0.419 1.094-0.653-0.041 0.419-0.3 0.753-0.468 1.12-1.092 1.56-2.683 2.663-4.188 3.797-0.696 0.522-1.266 0.931-1.562 1.462-0.317 0.444 0.354 0.542 0.468 0.716h15.688c0.179 0.002 0.343-0.104 0.437-0.249 0.006-0.009-0.005-0.022 0-0.031 0.079-0.14 0.109-0.293 0.031-0.436-1.787-1.9-4.131-3.162-5.75-5.259-0.277-0.322-0.32-0.746-0.468-1.12 0.546 0.457 1.205 0.706 1.844 0.996 1.871 0.752 4.169 0.905 6.374 0.435 1.745-0.371 3.417-1.102 4.657-2.24 0.684-0.628 1.207-1.372 1.562-2.241 0.143-0.349 0.268-0.735 0.344-1.12 0.301-1.176 0.072-2.225-0.281-3.454-0.49-1.509-1.346-2.856-2.219-4.17-1.573-2.279-3.675-4.63-5.75-6.753-4.15-4.2461-8.281-7.5934-8.281-7.5934-0.107-0.099-0.344-0.1478-0.344-0.1478z"/>
  <path id="p3" opacity=".4" fill="url(#G5)" d="m23.944 4.3261c-0.109 0.0152-0.209 0.0634-0.287 0.1375 0 0-4.136 3.3706-8.286 7.6484-2.076 2.138-4.162 4.5-5.735 6.795-1.5725 2.295-2.6378 4.513-2.6378 6.465 0 1.906 0.7964 3.475 2.0357 4.622 1.2391 1.147 2.9001 1.881 4.6451 2.256 3.002 0.644 6.237 0.163 8.229-1.486-0.078 0.386-0.218 0.771-0.459 1.155-1.084 1.58-2.676 2.688-4.186 3.824-0.696 0.526-1.281 0.951-1.577 1.486-0.082 0.153-0.075 0.336 0.019 0.482s0.261 0.235 0.44 0.233h15.712c0.179 0.002 0.346-0.087 0.44-0.233s0.101-0.329 0.019-0.482c-0.296-0.535-0.881-0.96-1.577-1.486-0.696-0.525-1.5-1.115-2.265-1.76s-1.474-1.349-1.921-2.064c-0.241-0.384-0.381-0.769-0.459-1.155 1.991 1.649 5.226 2.13 8.229 1.486 1.744-0.375 3.406-1.109 4.645-2.256s2.036-2.716 2.036-4.622c0-1.952-1.034-4.192-2.638-6.465-1.51-2.139-2.7-3.556-5.813-6.764-3.112-3.2082-8.208-7.6794-8.208-7.6794-0.107-0.0997-0.253-0.1499-0.401-0.1375zm0.057 1.183c0.5 0.412 4.06 3.3207 7.885 7.2629 2.051 2.114 4.098 4.464 5.62 6.685s2.494 4.328 2.494 5.915c0 1.646-0.68 2.917-1.749 3.906-1.069 0.99-2.562 1.694-4.157 2.036-3.192 0.685-6.733-0.052-8.115-1.926-0.115-0.159-0.316-0.238-0.514-0.202-0.198 0.035-0.356 0.179-0.403 0.368-0.228 1.03 0.066 2.032 0.602 2.888 0.535 0.857 1.315 1.603 2.122 2.284 0.936 0.745 1.891 1.465 2.81 2.228h-13.19c0.886-0.801 1.876-1.482 2.81-2.228 0.807-0.681 1.586-1.427 2.122-2.284 0.535-0.856 0.83-1.858 0.602-2.888-0.047-0.189-0.205-0.333-0.403-0.368-0.198-0.036-0.4 0.043-0.515 0.202-1.381 1.874-4.922 2.611-8.114 1.926-1.595-0.342-3.088-1.046-4.1573-2.036-1.0693-0.989-1.749-2.26-1.749-3.906 0-1.587 0.9725-3.694 2.4943-5.915 1.522-2.221 3.569-4.571 5.62-6.685 3.825-3.9422 7.385-6.8509 7.885-7.2629z"/>
  <path id="p4" opacity=".35" fill="url(#G4)" d="m15.152 12.479c-3.162 3.096-8.4007 9.41-8.1505 12.703 1.7987 2.236 9.3205-0.413 15.118-5.88 5.798-5.467 9.544-4.914 12.823-4.705-4.887-4.8728-5.006-4.9747-10.743-10.082-0.077-0.0678-0.342-0.0719-0.42-0.0031-5.293 4.7058-5.481 4.8856-8.628 7.9671z"/>
  <metadata>
    <rdf:RDF>
      <cc:Work>
        <dc:format>image/svg+xml</dc:format>
        <dc:type rdf:resource="http://purl.org/dc/dcmitype/StillImage"/>
        <cc:license rdf:resource="http://creativecommons.org/licenses/publicdomain/"/>
        <dc:publisher>
          <cc:Agent rdf:about="http://openclipart.org/">
            <dc:title>Openclipart</dc:title>
          </cc:Agent>
        </dc:publisher>
        <dc:title>emblem-spades</dc:title>
        <dc:date>2008-02-22T14:27:42</dc:date>
        <dc:description>Tango-styled spades icon.</dc:description>
        <dc:source>http://openclipart.org/detail/14692/emblem-spades-by-rocket000</dc:source>
        <dc:creator>
          <cc:Agent>
            <dc:title>Rocket000</dc:title>
          </cc:Agent>
        </dc:creator>
        <dc:subject>
          <rdf:Bag>
            <rdf:li>cards</rdf:li>
            <rdf:li>clip art</rdf:li>
            <rdf:li>clipart</rdf:li>
            <rdf:li>icon</rdf:li>
            <rdf:li>image</rdf:li>
            <rdf:li>media</rdf:li>
            <rdf:li>playing cards</rdf:li>
            <rdf:li>png</rdf:li>
            <rdf:li>public domain</rdf:li>
            <rdf:li>spades</rdf:li>
            <rdf:li>svg</rdf:li>
            <rdf:li>symbol</rdf:li>
            <rdf:li>tango</rdf:li>
          </rdf:Bag>
        </dc:subject>
      </cc:Work>
      <cc:License rdf:about="http://creativecommons.org/licenses/publicdomain/">
        <cc:permits rdf:resource="http://creativecommons.org/ns#Reproduction"/>
        <cc:permits rdf:resource="http://creativecommons.org/ns#Distribution"/>
        <cc:permits rdf:resource="http://creativecommons.org/ns#DerivativeWorks"/>
      </cc:License>
    </rdf:RDF>
  </metadata>
</svg>
