<?xml version="1.0" encoding="UTF-8" standalone="no"?>
<!-- Created with Inkscape (http://www.inkscape.org/) -->

<svg
   xmlns:dc="http://purl.org/dc/elements/1.1/"
   xmlns:cc="http://creativecommons.org/ns#"
   xmlns:rdf="http://www.w3.org/1999/02/22-rdf-syntax-ns#"
   xmlns:svg="http://www.w3.org/2000/svg"
   xmlns="http://www.w3.org/2000/svg"
   xmlns:sodipodi="http://sodipodi.sourceforge.net/DTD/sodipodi-0.dtd"
   xmlns:inkscape="http://www.inkscape.org/namespaces/inkscape"
   width="210mm"
   height="297mm"
   viewBox="0 0 210 297"
   version="1.1"
   id="svg8"
   inkscape:version="0.92.2 5c3e80d, 2017-08-06"
   sodipodi:docname="logo.svg">
  <defs
     id="defs2" />
  <sodipodi:namedview
     id="base"
     pagecolor="#ffffff"
     bordercolor="#666666"
     borderopacity="1.0"
     inkscape:pageopacity="0.0"
     inkscape:pageshadow="2"
     inkscape:zoom="2.56"
     inkscape:cx="-757.90291"
     inkscape:cy="828.318"
     inkscape:document-units="mm"
     inkscape:current-layer="layer1"
     showgrid="false"
     inkscape:measure-start="-363.655,630.335"
     inkscape:measure-end="711.147,404.061"
     inkscape:snap-bbox="true"
     showguides="true"
     inkscape:guide-bbox="true"
     inkscape:window-width="1440"
     inkscape:window-height="809"
     inkscape:window-x="3"
     inkscape:window-y="0"
     inkscape:window-maximized="0" />
  <metadata
     id="metadata5">
    <rdf:RDF>
      <cc:Work
         rdf:about="">
        <dc:format>image/svg+xml</dc:format>
        <dc:type
           rdf:resource="http://purl.org/dc/dcmitype/StillImage" />
        <dc:title></dc:title>
      </cc:Work>
    </rdf:RDF>
  </metadata>
  <g
     inkscape:label="Layer 1"
     inkscape:groupmode="layer"
     id="layer1">
    <path
       style="fill:none;stroke:#000000;stroke-width:0.26458332px;stroke-linecap:butt;stroke-linejoin:miter;stroke-opacity:1"
       d="m -313.37353,102.31085 c -7.34921,26.94711 206.48819,26.70023 213.982675,6.43117 -69.905435,-37.899951 -134.195355,-216.99003 -213.982675,-6.43117 z"
       id="path3773"
       inkscape:connector-curvature="0"
       sodipodi:nodetypes="ccc" />
    <path
       style="fill:none;stroke:#000000;stroke-width:0.26458332px;stroke-linecap:butt;stroke-linejoin:miter;stroke-opacity:1"
       d="M -240.87666,1.750693 C -152.57295,-57.938842 -73.291551,109.01772 -99.390855,108.74202"
       id="path3775"
       inkscape:connector-curvature="0"
       sodipodi:nodetypes="cc" />
    <path
       style="fill:none;stroke:#000000;stroke-width:0.29978698px;stroke-linecap:butt;stroke-linejoin:miter;stroke-opacity:1"
       d="m -258.99819,11.102786 2.33325,107.580654"
       id="path3777"
       inkscape:connector-curvature="0" />
    <path
       style="fill:none;stroke:#000000;stroke-width:0.26458332px;stroke-linecap:butt;stroke-linejoin:miter;stroke-opacity:1"
       d="m -188.84262,23.967472 1.75395,98.221548"
       id="path3779"
       inkscape:connector-curvature="0" />
    <path
       style="fill:none;stroke:#000000;stroke-width:0.26458332px;stroke-linecap:butt;stroke-linejoin:miter;stroke-opacity:1"
       d="m -232.33724,0.99739488 c 1.30701,-0.24273313 2.53798,-0.64887283 3.72071,-1.24023436 0.2756,-0.13780383 0.51868,-0.41341145 0.82682,-0.41341145 0.19488,0 0.22853,0.47503919 0.41341,0.41341145 0.36977,-0.12325548 0.45706,-0.70356742 0.82682,-0.82682292 0.18489,-0.061628 0.22435,0.46067778 0.41342,0.41341147 0.48202,-0.12050596 0.79582,-0.60462097 1.24023,-0.82682287 0.12325,-0.061628 0.27561,0 0.41341,0 0.27561,0 0.56536,0.087155 0.82682,0 0.18489,-0.061628 0.21853,-0.4134115 0.41342,-0.4134115 0.1378,0 -0.12326,0.3517837 0,0.4134115 0.2465,0.1232554 0.55121,0 0.82682,0 0.1378,0 -0.51086,0.097442 -0.41341,0 0.21788,-0.217887 0.60893,-0.1955245 0.82682,-0.4134115 0.0974,-0.097442 -0.55122,0 -0.41341,0 0.2756,0 0.55121,0 0.82682,0 0.1378,0 0.41341,-0.1378038 0.41341,0 0,0.1378038 -0.55121,0 -0.41341,0 0.27561,0 0.55122,0 0.82682,0 0.13781,0 0.29016,0.061628 0.41342,0 0.17431,-0.087155 0.21852,-0.4134114 0.41341,-0.4134114 0.19488,0 0.41341,0.2185274 0.41341,0.4134114 0,0.1378038 -0.55122,0 -0.41341,0 0.2756,0 0.55121,0 0.82682,0 0.1378,0 -0.55122,0 -0.41341,0 1.88196,0 0.41341,0.194884 0.41341,-0.4134114 0,-0.1378039 0.27561,0 0.41341,0 0.1378,0 0.27561,0 0.41341,0 0.13781,0 0.41341,-0.1378039 0.41341,0 0,0.1378038 -0.55121,0 -0.41341,0 0.27561,0 0.55122,0 0.82683,0 0.1378,0 -0.55122,0 -0.41342,0 0.27561,0 0.55122,0 0.82683,0 0.1378,0 -0.55122,0 -0.41341,0 2.71014,0 -1.46991,0 1.24023,0 0.1378,0 -0.51085,-0.097442 -0.41341,0 0.21789,0.2178869 0.60893,0.1955244 0.82682,0.4134114 0.0974,0.097442 -0.41341,0.1378038 -0.41341,0 0,-0.1378038 0.35178,-0.1232555 0.41341,0 0.12325,0.246511 -0.24651,0.7035674 0,0.8268229 0.27561,0.13780383 0.60894,-0.1955245 0.82682,-0.4134114 0.0919,-0.091869 -1.97518,0.045935 -0.41341,0.82682287 0.27561,0.13780381 0.60894,-0.19552449 0.82683,-0.41341147 0.0974,-0.097442 -0.41342,-0.1378038 -0.41342,0 0,0.30813871 0.13781,0.68901909 0.41342,0.82682292 0.17431,0.0871548 0.41341,-0.21852744 0.41341,-0.41341145 0,-0.13780383 -0.35179,-0.12325548 -0.41341,0 -0.12326,0.24651097 -0.19489,0.63193888 0,0.82682291 0.1378,0.13780381 0.2391,-0.32625667 0.41341,-0.41341146 0.12325,-0.0616277 0.41341,-0.13780383 0.41341,0 0,0.3081387 -0.19553,0.60893595 -0.41341,0.82682291 -0.0975,0.097442 0,-0.55121527 0,-0.41341145 0,2.71014172 0,-1.46990738 0,1.24023432 0,0.5512153 -0.13781,-1.51584196 0.41341,-0.41341142 0.12325,0.24651092 0,0.55121522 0,0.82682292 0,0.1378038 0,-0.5512153 0,-0.4134115 0,0.2756077 0,0.5512153 0,0.8268229 0,0.1378039 0,-0.5512152 0,-0.4134114 0,0.2756076 0,0.5512153 0,0.826823 0,0.1378038 0,-0.5512154 0,-0.4134116 0,0.2756077 -0.19489,0.6319389 0,0.8268231 0.1378,0.1378037 0.41341,-0.6082956 0.41341,-0.4134115 0,0.3081385 -0.19552,0.6089359 -0.41341,0.8268229 -0.0974,0.097442 0,-0.5512154 0,-0.4134114 0,0.2756074 0,0.5512152 0,0.8268229 0,0.1378037 -0.0974,-0.3159697 0,-0.4134115 0.0974,-0.097442 0.31597,-0.097442 0.41341,0 0.21789,0.2178868 0.41341,0.5186842 0.41341,0.8268229 0,0.1948839 -0.41341,-0.6082956 -0.41341,-0.4134114 0,0.3081385 0.1378,0.6890189 0.41341,0.8268229 0.17431,0.087155 0.41341,-0.2185276 0.41341,-0.4134115 0,-0.137804 -0.41341,0.1378038 -0.41341,0 0,-0.137804 0.27561,0 0.41341,0 0.3142,0 3.21093,0.06424 3.30729,0 0.22932,-0.1528796 -0.24651,-0.7035675 0,-0.8268229 0.27561,-0.137804 0.5345,0.5108533 0.82683,0.4134115 0.29232,-0.097442 0.1378,-0.6890192 0.41341,-0.8268229 0.17431,-0.087155 0.2391,0.500566 0.41341,0.4134114 0.27561,-0.137804 0.1378,-0.6890191 0.41341,-0.8268229 0.17431,-0.087155 0.21853,0.4134115 0.41341,0.4134115 0.19489,0 0.27561,-0.2756077 0.41341,-0.4134115 0.13781,-0.1378039 0.32626,-0.239102 0.41342,-0.4134116 0.0616,-0.1232554 -0.12326,-0.3517837 0,-0.4134114 0.24651,-0.1232555 0.58031,0.1232555 0.82682,0 0.12326,-0.061628 -0.13781,-0.4134115 0,-0.4134115 0.1378,0 -0.13781,0.4134115 0,0.4134115 0.30814,0 0.60894,-0.1955245 0.82682,-0.4134115 0.0974,-0.097442 -0.1378,-0.41341142 0,-0.41341142 0.13781,0 -0.1378,0.41341142 0,0.41341142 0.30814,0 0.68902,-0.1378038 0.82683,-0.41341142 0.0871,-0.17430958 -0.6083,-0.41341145 -0.41342,-0.41341145 0.30814,0 0.51869,0.41341145 0.82683,0.41341145 0.19488,0 -0.55122,-0.27560764 -0.41341,-0.41341145 0.19488,-0.19488404 0.55121,0 0.82682,0 0.2756,0 0.55121,0 0.82682,0 0.1378,0 -0.55122,0 -0.41341,0 1.88215,0 0.64486,0 2.06706,0 0.1378,0 -0.41341,0.13780381 -0.41341,0 0,-0.13780381 0.2756,0 0.41341,0 0.1378,0 0.41341,-0.13780381 0.41341,0 0,0.13780381 -0.41341,0.13780381 -0.41341,0 0,-0.30813869 0.82682,0.10527276 0.82682,0.41341145 0,0.19488402 -0.50057,0.23910192 -0.41341,0.41341142 0.1378,0.2756077 0.60893,0.1955245 0.82682,0.4134115 0.0974,0.097442 -0.41341,-0.1378038 -0.41341,0 0,0.194884 0.27561,0.2756076 0.41341,0.4134114 0.1378,0.1378039 0.41341,0.2185275 0.41341,0.4134116 0,0.2067058 -1.79145,-0.5512154 -0.41341,0.8268229 0.19489,0.1948839 0.63194,-0.1948841 0.82682,0 0.13781,0.1378038 -0.32625,0.2391019 -0.41341,0.4134115 -0.33972,0.679441 0.63638,0.4459425 0.82683,0.8268229 0.50056,1.0011259 -0.91398,-0.1743033 -0.41342,0.8268229 0.11486,0.2297057 0.82683,0.6935213 0.82683,0.8268229 0,0.1378037 -0.31597,-0.097442 -0.41341,0 -0.0583,0.058301 -0.0424,1.155432 0,1.2402344 0.0872,0.1743093 0.35178,0.228528 0.41341,0.4134114 0.0872,0.2614642 0,0.5512152 0,0.8268229 0,0.1378038 -0.0616,0.2901559 0,0.4134115 0.0872,0.1743093 0.41341,0.2185273 0.41341,0.4134114 0,0.1948839 -0.32626,0.2391019 -0.41341,0.4134115 -0.0176,0.03524 -0.0176,1.618404 0,1.653646 0.0872,0.174309 0.2391,0.326256 0.41341,0.413411 0.12325,0.06163 0.41341,-0.137804 0.41341,0 0,0.194884 -0.32626,0.239102 -0.41341,0.413412 -0.0616,0.123255 0,0.275607 0,0.413411 0,0.137804 -0.0616,0.290156 0,0.413412 0.0872,0.174309 0.32625,0.239101 0.41341,0.413411 0.0616,0.123255 -0.0616,0.290156 0,0.413412 0.0872,0.174309 0.41341,0.218527 0.41341,0.413411 0,0.137804 -0.31597,-0.09744 -0.41341,0 -0.0974,0.09744 0,0.275607 0,0.413411 0,0.137804 -0.0974,0.31597 0,0.413412 0.21789,0.217887 0.60894,0.195524 0.82682,0.413411 0.0974,0.09744 -0.35178,-0.123255 -0.41341,0 -0.12325,0.246511 0,0.551216 0,0.826823 0,0.137804 -0.1378,-0.413411 0,-0.413411 0.1378,0 -0.0974,0.315969 0,0.413411 0.0974,0.09744 0.31597,-0.09744 0.41341,0 0.0974,0.09744 -0.0974,0.31597 0,0.413412 0.0974,0.09744 0.41341,-0.137804 0.41341,0 0,0.137803 -0.2756,0 -0.41341,0 0,0.275607 -0.12325,0.580312 0,0.826823 0.12326,0.246511 0.82683,-0.275608 0.82683,0 0,0.137803 -0.31598,-0.09744 -0.41342,0 -0.0974,0.09744 0,0.275607 0,0.413411 0,0.275608 -0.19488,0.631939 0,0.826823 0.13781,0.137804 0.21853,-0.413411 0.41342,-0.413411 0.1378,0 -0.0975,0.315969 0,0.413411 0.0974,0.09744 0.41341,-0.137804 0.41341,0 0,0.137804 -0.31597,-0.09744 -0.41341,0 -0.0975,0.09744 0,0.275607 0,0.413411 0,0.137804 0,0.275608 0,0.413412 0,0.275607 -0.22866,0.672947 0,0.826823 1.8402,1.238402 3.91611,2.084218 5.87417,3.126327"
       id="path3783"
       inkscape:connector-curvature="0" />
    <path
       style="fill:none;stroke:#000000;stroke-width:0.26458332px;stroke-linecap:butt;stroke-linejoin:miter;stroke-opacity:1"
       d="m -195.54362,17.120442 c 0.68902,0 1.37804,0 2.06706,0 0,-0.137804 -0.0974,-0.31597 0,-0.413412 0.0974,-0.09744 0.31597,0.09744 0.41341,0 0.21789,-0.217887 0.19553,-0.608936 0.41341,-0.826823 0.0974,-0.09744 -0.12325,0.351784 0,0.413412 0.24651,0.123255 0.63194,0.194884 0.82683,0 0.19488,-0.194884 0,-0.551216 0,-0.826823 0,-0.137804 -0.12326,0.475039 0,0.413411 0.34861,-0.174309 0.55121,-0.551215 0.82682,-0.826823 0.1378,-0.137804 -0.41341,0.218528 -0.41341,0.413412 0,0.137804 0.31597,0.09744 0.41341,0 0,-1.102431 -0.13781,0.137804 0.41341,-0.413412 0.0974,-0.09744 -0.13781,-0.413411 0,-0.413411 0.19488,0 0.22853,0.475039 0.41341,0.413411 0.27561,-0.275607 0.55122,-0.551215 0.82682,-0.826822 0,0.137803 -0.1378,0.413411 0,0.413411 0.19489,0 0.32626,-0.239102 0.41342,-0.413411 0.0616,-0.123256 -0.13781,-0.413412 0,-0.413412 0.24178,0 0.56369,0.939674 0.82682,0.413412 0.12325,-0.246511 -0.19489,-0.63194 0,-0.826823 0.1378,-0.137804 0.21853,0.413411 0.41341,0.413411 0.30814,0 0.60894,-0.195525 0.82682,-0.413411 0.0974,-0.09744 -0.41341,0.137803 -0.41341,0 0,-0.194885 0.21853,-0.413412 0.41341,-0.413412 0.13781,0 -0.0974,0.31597 0,0.413412 0.0974,0.09744 0.31597,0.09744 0.41341,0 0.21789,-0.217887 0.19553,-0.608937 0.41342,-0.826823 0.0974,-0.09744 -0.0975,0.315969 0,0.413411 0.0974,0.09744 0.2756,0 0.41341,0 0.2756,0 0.55121,0 0.82682,0 0.1378,0 -0.41341,0.137804 -0.41341,0 0,-0.137804 0.28268,0.04358 0.41341,0 2.56351,-0.854505 0.41341,-0.243709 0.41341,-0.413411 0,-0.194884 0.21853,-0.413412 0.41341,-0.413412 0.13781,0 -0.12325,0.351784 0,0.413412 0.24651,0.123255 0.55122,0 0.82683,0 0.1378,0 -0.51086,0.09744 -0.41342,0 0.21789,-0.217887 0.60894,-0.195525 0.82683,-0.413412 0.0974,-0.09744 -0.13781,-0.413411 0,-0.413411 2.56351,0 0.41341,0.625855 0.41341,0.413411 0,-0.137804 0.27561,0 0.41341,0 0.1378,0 0.27561,0 0.41341,0 0.55122,0 1.10243,0 1.65365,0 0.1378,0 -0.55122,0 -0.41341,0 0.55121,0 1.10243,0 1.65364,0 0.13781,0 -0.41341,0.137804 -0.41341,0 0,-0.137804 0.27561,0 0.41341,0 0.13781,0 0.27561,0 0.41341,0 0.55122,0 1.10243,0 1.65365,0 0.1378,0 -0.41341,0.137804 -0.41341,0 0,-0.137804 0.2756,0 0.41341,0 0.27561,0 0.55121,0 0.82682,0 2.71014,0 -1.46991,0 1.24024,0 0.1378,0 -0.41341,0.137804 -0.41341,0 0,-0.137804 0.2756,0 0.41341,0 0.1378,0 0.31596,-0.09744 0.41341,0 0.0974,0.09744 -0.0974,0.31597 0,0.413412 0.0974,0.09744 0.31597,-0.09744 0.41341,0 0.0974,0.09744 -0.13781,0.413411 0,0.413411 0.19488,0 0.21853,-0.413411 0.41341,-0.413411 0.27561,0 -0.27561,0.826823 0,0.826823 0.19489,0 0.21853,-0.413412 0.41341,-0.413412 0.13781,0 -0.0974,0.31597 0,0.413412 0.55122,0.551215 0.41341,-0.68902 0.41341,0.413411"
       id="path3785"
       inkscape:connector-curvature="0" />
    <path
       style="fill:none;stroke:#000000;stroke-width:0.26458332px;stroke-linecap:butt;stroke-linejoin:miter;stroke-opacity:1"
       d="m -188.84262,23.967472 c -0.26145,-0.770353 -0.97955,-1.439527 -0.0864,-1.886093 0.12325,-0.06163 0.41341,0.137804 0.41341,0 0,-0.194884 -0.6083,-0.413411 -0.41341,-0.413411 0.30813,0 0.60893,0.195524 0.82682,0.413411 0.0974,0.09744 -0.41341,0.137804 -0.41341,0 0,-0.194884 0.2756,-0.275608 0.41341,-0.413411 0.1378,-0.137804 0.21853,-0.413412 0.41341,-0.413412 0.1378,0 0.1378,0.413412 0,0.413412 -0.13781,0 -0.0974,-0.31597 0,-0.413412 0.0974,-0.09744 0.31597,0.09744 0.41341,0 0.0974,-0.09744 -0.1378,-0.413411 0,-0.413411 0.1378,0 -0.0974,0.315969 0,0.413411 0.0974,0.09744 0.31597,0.09744 0.41341,0 0.0974,-0.09744 -0.0974,-0.315969 0,-0.413411 0.0974,-0.09744 0.41341,0.137803 0.41341,0 0,-0.194884 -0.55121,-0.275608 -0.41341,-0.413412 0.13781,-0.137804 0.2391,0.326257 0.41341,0.413412 0.65724,0.328618 0.85185,-0.826823 1.24024,-0.826823 0.1378,0 -0.13781,0.413411 0,0.413411 0.19488,0 0.2391,-0.326256 0.41341,-0.413411 0.12326,-0.06163 0.41341,0.137804 0.41341,0 0,-0.194884 -0.55122,-0.275608 -0.41341,-0.413412 0.1378,-0.137804 0.2391,0.326257 0.41341,0.413412 0.12326,0.06163 0.29016,0.06163 0.41341,0 0.22971,-0.114853 0.69352,-0.826823 0.82683,-0.826823 0.1378,0 -0.13781,0.413411 0,0.413411 0.19488,0 0.41341,-0.218527 0.41341,-0.413411 0,-0.137804 -0.41341,0.137804 -0.41341,0 0,-0.137804 0.31596,0.09744 0.41341,0 0.0974,-0.09744 -0.13781,-0.413411 0,-0.413411 1.37111,0 0,0.774639 0,0.413411 0,-0.137804 0.29015,0.06163 0.41341,0 1.37111,-0.685557 0,-0.289878 0,-0.413411 0,-0.137804 0.29015,0.06163 0.41341,0 0.17431,-0.08715 0.21853,-0.413412 0.41341,-0.413412 0.13781,0 -0.0974,0.315969 0,0.413412 0.0974,0.09744 0.31597,0.09744 0.41341,0 0.24707,-0.247068 -0.44685,-0.826823 0.41341,-0.826823 0.13781,0 -0.0974,0.315969 0,0.413411 0.0975,0.09744 0.41342,0.137804 0.41342,0 0,-0.194884 -0.41342,-0.218528 -0.41342,-0.413411 0,-0.275608 0.63194,0.194883 0.82683,0 0.0974,-0.09744 -0.13781,-0.413412 0,-0.413412 1.88196,0 -0.55611,0.969523 0.41341,0 0.0974,-0.09744 0.31597,0.09744 0.41341,0 0.0974,-0.09744 -0.1378,-0.413411 0,-0.413411 0.19488,0 0.21853,0.413411 0.41341,0.413411 0.13781,0 -0.0974,-0.31597 0,-0.413411 0.0974,-0.09744 0.31597,0.09744 0.41341,0 0.0974,-0.09744 -0.1378,-0.413412 0,-0.413412 0.13781,0 -0.0974,0.31597 0,0.413412 0.0974,0.09744 0.41342,-0.137804 0.41342,0 0,0.137803 -0.31598,0.09744 -0.41342,0 -0.0974,-0.09744 -0.0974,-0.31597 0,-0.413412 0.0974,-0.09744 0.31597,0.09744 0.41342,0 0.0974,-0.09744 -0.13781,-0.413411 0,-0.413411 0.19488,0 0.41341,0.218527 0.41341,0.413411 0,0.137804 -0.41341,0.137804 -0.41341,0 0,-0.137804 0.31596,0.09744 0.41341,0 0.0974,-0.09744 -0.0975,-0.315969 0,-0.413411 0.0974,-0.09744 0.41341,0.137804 0.41341,0 0,-0.194884 -0.55122,-0.275608 -0.41341,-0.413412 0.19488,-0.194884 0.55121,0 0.82682,0 0.1378,0 -0.41341,0.137804 -0.41341,0 0,-0.194884 0.21853,-0.413411 0.41341,-0.413411 0.1378,0 -0.13781,0.413411 0,0.413411 0.19488,0 0.41341,-0.218527 0.41341,-0.413411 0,-0.137804 -0.41341,0.137804 -0.41341,0 0,-0.137804 0.31597,0.09744 0.41341,0 0.0974,-0.09744 -0.1378,-0.413412 0,-0.413412 0.1378,0 -0.0974,0.31597 0,0.413412 0.0974,0.09744 0.31597,0.09744 0.41341,0 0.19489,-0.194884 -0.27561,-0.826823 0,-0.826823 0.19489,0 0.21853,0.413411 0.41341,0.413411 0.13781,0 -0.0974,-0.315969 0,-0.413411 0.0974,-0.09744 0.31597,0.09744 0.41342,0 0.0974,-0.09744 -0.0975,-0.31597 0,-0.413411 0.0974,-0.09744 0.41341,-0.137804 0.41341,0 0,0.137803 -0.41341,0.137803 -0.41341,0 0,-0.194885 0.21852,-0.413412 0.41341,-0.413412 0.19488,0 0.41341,0.218527 0.41341,0.413412 0,0.137803 -0.41341,0.137803 -0.41341,0 0,-0.672696 2.03251,-0.413412 2.06705,-0.413412"
       id="path3787"
       inkscape:connector-curvature="0" />
    <path
       style="fill:none;stroke:#000000;stroke-width:0.26458332px;stroke-linecap:butt;stroke-linejoin:miter;stroke-opacity:1"
       d="m -188.84262,23.967472 c 1.90045,-0.490894 3.74015,-1.392722 5.70135,-1.472681 0.009,-3.71e-4 -0.0123,2.856931 0,2.89388 0.0436,0.130732 0.29015,-0.06163 0.41341,0 0.17431,0.08716 0.32625,0.239102 0.41341,0.413411 0.1378,0.413412 0.27561,0.826823 0.41341,1.240234 0.1378,0.137806 0.32626,0.239101 0.41341,0.413411 0.0616,0.123257 -0.0974,0.315971 0,0.413412 0.0974,0.09744 0.31597,-0.09744 0.41341,0 0.0974,0.09744 -0.0974,0.315971 0,0.413411 0.0974,0.09744 0.31597,-0.09744 0.41341,0 0.0975,0.09744 -0.0974,0.315971 0,0.413412 0.0975,0.09744 0.31597,-0.09744 0.41342,0 0.21788,0.217887 0.19552,0.608936 0.41341,0.826823 0.0974,0.09744 -0.0975,-0.315968 0,-0.413412 0.0133,-0.01328 1.13997,0 1.24023,0 0.13781,0 0.41341,-0.137803 0.41341,0 0,0.137806 -0.55121,0 -0.41341,0 0.27561,0 0.55122,0 0.82683,0 0.1378,0 0.41341,-0.137803 0.41341,0 0,0.137806 -0.55122,0 -0.41341,0 0.55121,0 1.10242,0 1.65364,0 0.1378,0 0.31597,0.09744 0.41341,0 0.21789,-0.217887 0.13781,-0.689017 0.41341,-0.826823 0.17431,-0.08715 0.21853,0.413412 0.41342,0.413412 0.1378,0 -0.0975,-0.315968 0,-0.413412 0.0974,-0.09744 0.29015,0.06163 0.41341,0 0.17431,-0.08715 0.2756,-0.551214 0.41341,-0.413411 0.1378,0.137806 -0.41341,0.218527 -0.41341,0.413411 0,0.137806 0.29015,0.06163 0.41341,0 0.17431,-0.08715 0.2391,-0.326255 0.41341,-0.413411 0.12326,-0.06163 0.41341,0.137806 0.41341,0 0,-0.194884 -0.55122,-0.275606 -0.41341,-0.413412 0.1378,-0.137802 0.21853,0.413412 0.41341,0.413412 0.19489,0 0.41341,-0.218527 0.41341,-0.413412 0,-0.137802 -0.55121,0 -0.41341,0 0.27561,0 0.55122,0 0.82682,0 0.13781,0 -0.41341,0.137806 -0.41341,0 0,-0.137802 0.27561,0 0.41341,0 0.13781,0 0.41342,-0.137802 0.41342,0 0,0.137806 -0.41342,0.137806 -0.41342,0 0,-0.137802 0.31597,-0.09744 0.41342,0 0.0974,0.09744 0,0.275609 0,0.413412 0,0.259247 -0.0511,1.602581 0,1.653646 0.0974,0.09744 0.41341,-0.137803 0.41341,0 0,0.308139 -0.31597,0.534498 -0.41341,0.826823 -0.0177,0.05319 -0.0171,1.205997 0,1.240234 0.0872,0.17431 0.32625,0.239101 0.41341,0.413411 0.12551,0.251034 -0.12552,2.229438 0,2.480469 0.0872,0.17431 0.41341,0.218528 0.41341,0.413412 0,0.137805 -0.27561,0 -0.41341,0 0,0.275608 -0.12326,0.580313 0,0.826823 0.0616,0.123256 0.31597,-0.09744 0.41341,0 0.0974,0.09744 -0.0616,0.290155 0,0.413411 0.0872,0.17431 0.41341,0.218527 0.41341,0.413411 0,0.137806 -0.31597,-0.09744 -0.41341,0 -0.0974,0.09744 -0.0974,0.315971 0,0.413412 0.0974,0.09744 0.35178,-0.123256 0.41341,0 0.12326,0.246512 0,0.551217 0,0.826823 0,0.137805 0,-0.551215 0,-0.413412 0,0.275609 -0.19488,0.631939 0,0.826823 0.1378,0.137806 0.41341,-0.608295 0.41341,-0.413411 0,0.308139 -0.41341,0.518684 -0.41341,0.826823 0,0.194884 0.27561,-0.551215 0.41341,-0.413412 0.19489,0.194884 -0.19488,0.631939 0,0.826823 0.1378,0.137806 0.41341,-0.218527 0.41341,-0.413411 0,-0.137803 -0.41341,-0.137803 -0.41341,0 0,0.308139 0.19553,0.608936 0.41341,0.826823 0.0974,0.09744 -0.0974,-0.510853 0,-0.413412 0.21789,0.217887 0.41341,0.518684 0.41341,0.826823 0,0.194884 -0.41341,-0.218527 -0.41341,-0.413411 0,-0.137803 0.35178,-0.123257 0.41341,0 0.12326,0.246512 0,0.551217 0,0.826823 0,0.137805 0,-0.275606 0,-0.413412 0.13781,0 0.41342,-0.137803 0.41342,0 0,0.308139 -0.19553,0.608936 -0.41342,0.826823 -0.18374,0.18374 0.0459,-1.148366 0.41342,-0.413411 0.12325,0.246512 0,0.551217 0,0.826822 0,0.137806 -0.0974,-0.315968 0,-0.413411 0.0974,-0.09744 0.41341,-0.137803 0.41341,0 0,0.137806 -0.31597,-0.09744 -0.41341,0 -0.24707,0.247068 0.25196,0.826823 0.41341,0.826823 0.1378,0 -0.0974,-0.315968 0,-0.413412 0.0974,-0.09744 0.2756,0 0.41341,0 0.1378,0 0.2756,0 0.41341,0 0.1378,0 0.41341,-0.137802 0.41341,0 0,0.137806 -0.55122,0 -0.41341,0 0.41341,0 0.94791,0.292328 1.24023,0 0.21789,-0.217887 -0.68902,-0.689017 -0.41341,-0.826822 0.38977,-0.194885 0.81747,0.519101 1.24024,0.413411 0.29893,-0.07473 0.19552,-0.608936 0.41341,-0.826823 0.0974,-0.09744 0.29015,0.06163 0.41341,0 0.62943,-0.314711 0.24206,-0.826823 1.24023,-0.826823 0.19489,0 0.21853,0.413412 0.41342,0.413412 0.1378,0 -0.0616,-0.290156 0,-0.413412 0.0871,-0.17431 0.22852,-0.351782 0.41341,-0.413411 0.26146,-0.08715 0.55121,0 0.82682,0 0.1378,0 -0.55122,0 -0.41341,0 0.2756,0 0.55121,0 0.82682,0 0.1378,0 -0.41341,0.137805 -0.41341,0 0,-0.137803 0.27561,0 0.41341,0 0.1378,0 0.41341,-0.137803 0.41341,0 0,0.137805 -0.41341,-0.137803 -0.41341,0 0,0.194884 0.32626,0.239101 0.41341,0.413411 0.0463,0.09266 0,1.555406 0,1.653646 0,0.826823 0,1.653646 0,2.480469 0,3.795059 0,3.916357 0,7.027994 0,0.137806 -0.1378,-0.413411 0,-0.413411 0.19489,0 0.41341,0.218527 0.41341,0.413411 0,0.137806 -0.35178,-0.123256 -0.41341,0 -0.12325,0.246513 0,0.551217 0,0.826823"
       id="path3789"
       inkscape:connector-curvature="0" />
    <path
       style="fill:none;stroke:#000000;stroke-width:0.26458332px;stroke-linecap:butt;stroke-linejoin:miter;stroke-opacity:1"
       d="m -161.23047,51.02018 c 2.166,-5.631584 0.14768,-5.374349 2.89388,-5.374349 2.31855,0 2.98819,0 4.96094,0 0.24637,0 2.79235,-0.05076 2.89388,0 0.12326,0.06163 -0.12326,0.351785 0,0.413412 0.24651,0.123256 0.55122,0 0.82682,0 0.13781,0 0.31597,-0.09744 0.41342,0 0.27533,0.275339 -0.27534,0.551484 0,0.826823 0.50352,0.503528 0.92364,0.193651 1.24023,0.826823 0.0616,0.123256 -0.0616,0.290155 0,0.413411 0.0871,0.17431 0.32625,0.239101 0.41341,0.413412 0.0616,0.123256 -0.0616,0.290155 0,0.413411 0.0871,0.17431 0.41341,0.218527 0.41341,0.413412 0,0.194884 -0.35178,0.228528 -0.41341,0.413411 -0.0872,0.261464 0,0.551217 0,0.826823 0,0.137805 -0.0436,0.282681 0,0.413411 0.0974,0.292328 0.31597,0.534498 0.41341,0.826823 0.0436,0.130733 0,0.275609 0,0.413412 0,0.68902 0,1.37804 0,2.067057 0,0.275608 -0.0668,0.559446 0,0.826823 0.0747,0.298939 0.41341,0.518684 0.41341,0.826823 0,0.308139 -0.33867,0.527886 -0.41341,0.826823 -0.0668,0.26738 0,0.551217 0,0.826823 0,0.275608 -0.0668,0.559445 0,0.826822 1.17113,2.342261 -0.15407,-0.616278 0.41341,1.653646 0.0747,0.29894 0.41342,0.518684 0.41342,0.826823 0,0.308139 -0.41342,0.518684 -0.41342,0.826823 0,0.616278 0.82683,1.037368 0.82683,1.653646 0,0.137805 -0.47504,-0.123256 -0.41341,0 0.17431,0.34862 0.73229,0.448694 0.82682,0.826823 0.0747,0.298939 -0.41341,0.518684 -0.41341,0.826823 0,0.194884 0.32625,0.239101 0.41341,0.413411 0.0616,0.123256 -0.0974,0.315971 0,0.413412 0.21789,0.217887 0.72938,0.121086 0.82682,0.413411 0.0974,0.292328 -0.55122,0.551217 -0.41341,0.826823 0.12326,0.246512 0.63194,-0.194884 0.82682,0 0.13781,0.137806 -0.50056,0.239101 -0.41341,0.413411 0.1378,0.275609 0.68902,0.137806 0.82682,0.413412 0.0872,0.17431 -0.55121,0.275608 -0.41341,0.413411 0.19489,0.194884 0.55122,0 0.82683,0 0.1378,0 -0.41342,-0.137803 -0.41342,0 0,0.194884 0.23911,0.326258 0.41342,0.413412 0.12325,0.06163 0.2756,0 0.41341,0 0.1378,0 0.2756,0 0.41341,0 0.2756,0 0.55121,0 0.82682,0 0.27561,0 0.56536,0.08716 0.82682,0 0.18489,-0.06163 0.22853,-0.351782 0.41342,-0.413412 0.26146,-0.08715 0.55944,0.06685 0.82682,0 0.29894,-0.07473 0.53449,-0.315968 0.82682,-0.413411 0.13073,-0.04358 0.29875,0.07644 0.41341,0 0.32431,-0.216204 0.45706,-0.703567 0.82683,-0.826823 0.18488,-0.06163 0.22852,0.351785 0.41341,0.413411 0.26146,0.08716 0.55121,0 0.82682,0 0.27561,0 0.55121,0 0.82682,0 0.27561,0 0.55122,0 0.82683,0 0.1378,0 0.41341,-0.137802 0.41341,0 0,0.137806 -0.55122,0 -0.41341,0 0.2756,0 0.63194,-0.194884 0.82682,0 0.1378,0.137806 -0.41341,0.218528 -0.41341,0.413412 0,0.389768 0.82682,0.437055 0.82682,0.826823 0,0.551217 -1.79145,-1.240235 -0.41341,0.826823 0.17092,0.256386 0.68902,0.137805 0.82682,0.413411 0.0872,0.17431 -0.32626,0.239101 -0.41341,0.413412 -0.29725,0.594502 0.74331,0.906195 0.82682,1.240234 0.0747,0.298939 -0.41341,0.518684 -0.41341,0.826823 0,0.616278 0.82683,1.037368 0.82683,1.653646 0,0.308139 -0.48815,0.527886 -0.41342,0.826823 0.0945,0.378132 0.73229,0.448693 0.82683,0.826823 0.24376,0.975055 -1.11145,0.606589 -0.41341,1.653645 0.17092,0.256387 0.72937,0.121087 0.82682,0.413412 0.1378,0.413411 -0.72155,0.932095 -0.41341,1.240234 0.21788,0.217887 0.72938,0.121087 0.82682,0.413412 0.0974,0.292327 -0.55122,0.551217 -0.41341,0.826822 0.12325,0.246513 0.70356,-0.246509 0.82682,0 1.21882,2.437636 -1.98356,-0.701582 -0.41341,1.653646 0.17092,0.256387 0.68902,0.137806 0.82682,0.413412 -0.37305,1.508918 -0.51085,-0.09744 -0.41341,0 0.21789,0.217887 0.24249,0.570436 0.41341,0.826823 0.1081,0.162155 0.41341,0.218527 0.41341,0.413411 0,0.137806 -0.29015,0.06163 -0.41341,0 -0.17431,-0.08715 -0.27561,-0.275606 -0.41341,-0.413411 -0.82682,-0.826823 -1.65364,-1.653646 -2.48047,-2.480469"
       id="path3791"
       inkscape:connector-curvature="0" />
    <path
       style="fill:none;stroke:#000000;stroke-width:0.26458332px;stroke-linecap:butt;stroke-linejoin:miter;stroke-opacity:1"
       d="m -133.11849,80.785805 c 0.68902,-2.067057 1.25785,-4.178141 2.06706,-6.201172 0.0512,-0.127947 0.27561,0 0.41341,0 0.68902,0 1.37804,0 2.06706,0 2.20486,0 4.40972,0 6.61458,0 0.68902,0 1.37804,0 2.06706,0 0.1378,0 0.27561,0 0.41341,0 0.1378,0 0.29016,-0.06163 0.41341,0 0.83612,0.41806 0.13257,0.959395 0.41341,1.240235 0.21789,0.217887 0.60894,0.195524 0.82683,0.413411 0.0974,0.09744 -0.47504,-0.123256 -0.41342,0 2.53154,2.531541 -0.17431,-0.697238 0.41342,1.653646 0.0945,0.378132 0.73229,0.448693 0.82682,0.826823 0.43887,1.755484 -1.28596,-0.09145 -0.41341,1.653645 0.17431,0.348621 0.75038,0.444625 0.82682,0.826823 0.0855,0.427313 -0.41341,0.804461 -0.41341,1.240235 0,0.308139 0.36275,0.522877 0.41341,0.826823 0.0906,0.543716 0,1.102431 0,1.653645 0,0.275609 -0.0668,0.559446 0,0.826823 0.0454,0.18174 0.82682,1.557497 0.82682,1.653646 0,0.56818 -0.34293,1.089853 -0.41341,1.653646 -0.0684,0.54696 0,1.102431 0,1.653646 0,0.275608 -0.0668,0.559445 0,0.826823 0.0747,0.298939 0.35298,0.524668 0.41341,0.826823 0.12518,0.625885 -0.16386,2.815717 0,3.307291 0.15712,0.471363 0.70632,0.758211 0.82683,1.240235 0.0473,0.189066 -0.41342,0.218527 -0.41342,0.413411 0,0.194884 0.36615,0.224348 0.41342,0.413412 0.10026,0.401068 0,0.826822 0,1.240234 0,0.275608 -0.19489,0.631939 0,0.826823 0.19488,0.194884 0.70356,-0.24651 0.82682,0 0.1378,0.275608 -0.31597,0.534498 -0.41341,0.826818 -0.2335,0.7005 0.39886,0.39887 0.82682,0.82683 0.0974,0.0974 -0.31597,-0.0974 -0.41341,0 -0.0974,0.0974 -0.0974,0.31597 0,0.41341 1.49874,1.49874 0.72999,0 0.41341,0 -0.1378,0 -0.0974,0.31597 0,0.41341 0.0974,0.0974 0.31597,-0.0974 0.41341,0 0.0974,0.0974 0.1378,0.41341 0,0.41341 -0.1378,0 -0.0974,-0.31597 0,-0.41341 0.0974,-0.0974 0.27561,0 0.41341,0 0.27561,0 0.55122,0 0.82683,0 0.1378,0 0.31596,0.0974 0.41341,0 0.35133,-0.35133 0.47549,-0.8889 0.82682,-1.24023 0.0974,-0.0974 0.29016,0.0616 0.41341,0 0.61628,-0.30814 0.75302,-1.166438 1.24024,-1.65365 0.0974,-0.09744 0.2756,0 0.41341,0 0.27561,-0.413411 0.5287,-0.842745 0.82682,-1.240234 0.11693,-0.155906 0.27561,-0.275606 0.41341,-0.413411 0.13781,-0.137803 0.25126,-0.305308 0.41341,-0.413412 0.25639,-0.170923 0.64194,-0.166899 0.82683,-0.413411 0.45705,-0.609407 0.11331,-1.296893 0.82682,-1.653646 0.12326,-0.06163 0.27561,0 0.41341,0 0.1378,-0.275606 0.19553,-0.608936 0.41341,-0.826823 0.0974,-0.09744 0.35179,0.123256 0.41341,0 0.21832,-0.436634 -0.49059,-1.73083 0.82683,-0.413412 0.0974,0.09744 -0.35179,0.123257 -0.41341,0 -0.12326,-0.246509 -0.19489,-0.631938 0,-0.826822 0.1378,-0.137803 0.2391,0.326257 0.41341,0.413411 0.68902,0.344511 0.41341,-0.826823 0.41341,0.826823 0,0.137805 0,0.275608 0,0.413411 0.27561,0.137806 0.75209,0.114475 0.82682,0.413412 0.10569,0.422764 -0.5191,0.817472 -0.41341,1.240234 0.0747,0.29894 0.75209,0.114475 0.82682,0.413412 0.10569,0.422764 -0.27561,0.826823 -0.41341,1.240234 0.27561,0.413411 0.6697,0.768874 0.82682,1.240234 0.0436,0.130734 -0.41341,-0.137803 -0.41341,0 0,0.435774 0.30772,0.81747 0.41341,1.24023 0.0334,0.1337 0,0.27561 0,0.41342 0,0.2756 -0.0668,0.55944 0,0.82682 0.0747,0.29894 0.33868,0.52789 0.41342,0.82682 0.0668,0.26738 -0.0669,0.55945 0,0.82682 0.0747,0.29894 0.31596,0.5345 0.41341,0.82683 0.0436,0.13073 -0.0436,0.28268 0,0.41341 0.0974,0.29233 0.31596,0.5345 0.41341,0.82682 0.0436,0.13074 -0.0764,0.29875 0,0.41341 0.216203,0.32431 0.703565,0.45706 0.826821,0.82683 0.08073,0.24217 -0.831721,0.40851 -0.413411,0.82682 0.217887,0.21789 0.68902,0.1378 0.826823,0.41341 0.08715,0.17431 -0.218528,0.41341 -0.413412,0.41341 -0.137803,0 0,-0.55121 0,-0.41341 0,0.27561 0,0.55122 0,0.82682 0,0.13781 0.102172,-0.32094 0,-0.41341 -0.07657,-0.0693 -0.114736,0.17177 -0.172106,0.25765"
       id="path3793"
       inkscape:connector-curvature="0" />
    <path
       style="fill:none;stroke:#000000;stroke-width:0.26458332px;stroke-linecap:butt;stroke-linejoin:miter;stroke-opacity:1"
       d="m -215.80078,-8.9244801 c 0.55122,0.137804 1.12611,0.2023948 1.65365,0.4134114 0.18094,0.072378 0.2391,0.3262567 0.41341,0.4134115 0.36976,0.1848834 0.87046,-0.1848832 1.24023,0 0.12326,0.061628 -0.12325,0.3517839 0,0.4134114 0.49303,0.246511 1.11889,-0.1336892 1.65365,0 0.29894,0.074735 0.60893,0.1955247 0.82682,0.4134115 0.0974,0.097442 -0.1378,0.4134114 0,0.4134114 0.43578,0 0.81747,-0.5191021 1.24024,-0.4134114 0.29893,0.074735 0.19552,0.6089361 0.41341,0.8268229 0.002,0.0022 1.22641,-0.00346 1.24023,0 0.29894,0.074735 0.5345,0.3159696 0.82682,0.4134114 0.26147,0.087155 0.55122,0 0.82683,0 0.68902,0 1.37804,0 2.06706,0 0.13925,0 2.86669,0.027182 2.89388,0 0.19488,-0.1948838 -0.19489,-0.6319387 0,-0.8268229 0.19488,-0.1948838 0.56535,0.087155 0.82682,0 0.18488,-0.061627 0.2391,-0.3262566 0.41341,-0.4134114 0.12326,-0.061628 0.29015,0.061628 0.41341,0 0.17431,-0.087155 0.2391,-0.3262567 0.41341,-0.4134115 0.24651,-0.1232553 0.63194,0.1948842 0.82683,0 0.0974,-0.097442 -0.0975,-0.3159693 0,-0.4134114 0.0974,-0.097442 0.2756,0 0.41341,0 0.1378,0 0.29015,-0.061628 0.41341,0 1.24247,0.6212345 -0.61114,0.6290913 0,1.2402343 2.5982,1.2991029 0.0346,-0.309514 0.41341,0.8268229 0.41341,1.2402344 0.82682,0.4134115 1.24023,1.2402344 0.41342,0.8268229 -0.82682,0 0,1.2402344 1.07334,1.6100009 0.82683,-0.8547463 0.82683,1.2402345 0,0.1378038 -0.0975,-0.5108534 0,-0.4134116 0.35133,0.3513323 0.70631,0.7582107 0.82682,1.2402345 0.0473,0.1890652 -0.55122,0.2756076 -0.41341,0.4134114 0.30814,0.30813871 0.93209,0.10527275 1.24023,0.41341147 0.13781,0.13780381 -0.50057,0.23910187 -0.41341,0.41341145 0.1378,0.27560764 0.60894,0.19552449 0.82682,0.41341146 0.0975,0.097442 -0.2756,0 -0.41341,0 0.27561,0.13780381 0.60894,0.19552449 0.82683,0.41341145 0.0974,0.097442 0,0.27560765 0,0.41341145 0.2756,0.13780382 0.53449,0.31596942 0.82682,0.41341142 0.13073,0.043577 0.41341,-0.1378038 0.41341,0 0,0.1378038 -0.31597,-0.097442 -0.41341,0 -0.0974,0.097442 -0.13781,0.4134115 0,0.4134115 1.9993,0 0.41341,-0.94788431 0.41341,0 0,0.2756076 0.82682,-0.2756077 0.82682,0 0,0.1378038 -0.55121,0 -0.41341,0 0.27561,0 0.55122,0 0.82682,0 0.13781,0 -0.55121,0 -0.41341,0 0.27561,0 0.63194,0.194884 0.82683,0 0.19488,-0.194884 -0.0872,-0.5653585 0,-0.82682292 0.0746,-0.22375449 1.05916,-0.96863369 1.24023,-1.24023436 0.17092,-0.2563869 0.19552,-0.60893594 0.41341,-0.82682292 0.35133,-0.3513322 0.84275,-0.5287077 1.24024,-0.8268229 0.086,-0.064476 0.79234,-0.8153308 0.82682,-0.826823 0.26146,-0.087155 0.5975,0.1528797 0.82682,0 0.25639,-0.1709246 0.15703,-0.6558981 0.41341,-0.8268229 0.22932,-0.1528795 0.55122,0 0.82683,0 0.1378,0 -0.47504,0.1232556 -0.41342,0 0.17431,-0.348619 0.55122,-0.5512152 0.82683,-0.8268229 0.1378,-0.1378038 -0.41341,0.2185275 -0.41341,0.4134114 0,0.137804 0.2756,0 0.41341,0 0.2756,0 0.55121,0 0.82682,0 0.1378,0 -0.41341,0.137804 -0.41341,0 0,-0.1378037 0.27561,0 0.41341,0 0.1378,0 0.41341,-0.1378037 0.41341,0 0,0.137804 -0.41341,0.137804 -0.41341,0 0,-0.1378037 0.27561,0 0.41341,0 0.13781,0 0.31597,-0.097442 0.41341,0 2.24663,2.2466241 -0.473,-0.1787819 0,1.2402344 -0.0436,0.695888 1.05535,0.6855848 1.24024,1.2402345 0.0872,0.2614643 -0.0669,0.55944419 0,0.82682287 0.0747,0.29893845 0.33868,0.52788445 0.41341,0.82682291 0.0668,0.26737868 -0.19488,0.63193887 0,0.8268229 0.19488,0.19488402 0.63194,-0.19488403 0.82682,0 0.30814,0.30813872 0.21853,0.85046632 0.41341,1.24023432 0.0872,0.1743096 0.35179,0.2285283 0.41342,0.4134116 0.0872,0.2614642 -0.0872,0.5653585 0,0.8268229 0.0616,0.1848832 0.3053,0.2512582 0.41341,0.4134115 0.17092,0.2563868 0.19552,0.6089359 0.41341,0.8268229 0.21789,0.2178867 0.57043,0.2424866 0.82682,0.4134114 0.32431,0.2162043 0.4782,0.6525133 0.82682,0.826823 0.12326,0.061628 0.35179,-0.1232557 0.41342,0 0.12325,0.2465109 -0.0872,0.5653584 0,0.8268229 0.27422,0.8226678 0.38585,0.1929251 0.82682,0.4134114 0.2297,0.114853 0.69352,0.8268229 0.82682,0.8268229 0.19489,0 0.27561,-0.5512154 0.41341,-0.4134114 0.19489,0.1948838 -0.24651,0.7035673 0,0.8268229 0.27561,0.1378037 0.51869,-0.4134115 0.82683,-0.4134115 0.38976,0 0.43705,0.8268229 0.82682,0.8268229 0.19488,0 0.2391,-0.3262566 0.41341,-0.4134114 0.1087,-0.054352 1.43746,0 1.65365,0 0.41341,0 0.82682,0 1.24023,0 0.1378,0 0.41341,-0.137804 0.41341,0 0,0.1378037 -0.55122,0 -0.41341,0 0.27561,0 0.55121,0 0.82682,0 0.13781,0 0.41341,-0.137804 0.41341,0 0,0.1378037 -0.47504,0.1232553 -0.41341,0 0.17431,-0.3486193 0.47821,-0.6525136 0.82683,-0.8268229 0.12325,-0.061628 -0.12326,0.3517836 0,0.4134114 0.24651,0.1232554 0.55121,0 0.82682,0 0.1378,0 -0.41341,0.1378037 -0.41341,0 0,-0.137804 0.31597,0.097442 0.41341,0 0.19488,-0.1948841 -0.27561,-0.8268229 0,-0.8268229 0.30814,0 0.60893,0.1955244 0.82682,0.4134115 0.0974,0.097442 -0.47504,0.1232553 -0.41341,0 0.17431,-0.3486193 0.55121,-0.5512155 0.82682,-0.8268229 0.13781,-0.137804 -0.21852,0.4134114 -0.41341,0.4134114 -0.1378,0 -0.0974,-0.3159696 0,-0.4134114 0.0974,-0.097442 0.36984,0.1307319 0.41341,0 0.13073,-0.3921967 0,-0.8268229 0,-1.2402344 0,-0.8268229 0,-1.6536458 0,-2.4804687 0,-0.4134115 0,-0.8268231 0,-1.2402345 0,-0.1378038 0.0334,-0.2797221 0,-0.4134115 -0.21138,-0.8455256 -0.55121,-1.65364578 -0.82682,-2.4804687"
       id="path3795"
       inkscape:connector-curvature="0" />
    <path
       style="fill:none;stroke:#000000;stroke-width:0.26458332px;stroke-linecap:butt;stroke-linejoin:miter;stroke-opacity:1"
       d="m -164.95117,-1.0696624 c 0.4193,3.767893 0.41341,7.4282084 0.41341,11.1621094 0,0.600565 -0.0833,2.310757 0,2.89388 0.29948,2.096317 0.26164,1.067501 0.82682,2.480469 0.19904,0.497597 0.43902,1.582295 0.82683,2.067057 0.36523,0.456537 0.875,0.783698 1.24023,1.240235 0.19249,0.240615 0.27561,0.551215 0.41341,0.826822 0.41341,0.413412 0.87501,0.783698 1.24024,1.240235 0.19249,0.240616 0.19552,0.608936 0.41341,0.826823 0.0974,0.09744 0.30317,-0.08268 0.41341,0 0.46772,0.350791 0.7389,0.939433 1.24023,1.240234 0.23634,0.141799 0.63194,-0.194884 0.82683,0 0.19488,0.194884 -0.19489,0.631939 0,0.826823 0.30814,0.308139 0.85046,0.218527 1.24023,0.413411 0.17431,0.08715 0.27561,0.275608 0.41341,0.413412 0.41342,0 0.83485,-0.08108 1.24024,0 0.30215,0.06043 0.51868,0.413411 0.82682,0.413411 0.30814,0 0.52788,-0.338677 0.82682,-0.413411 0.26738,-0.06685 0.55122,0 0.82683,0 0.82682,0 1.65364,0 2.48047,0 0.41341,0 0.86024,0.162851 1.24023,0 0.63331,-0.271418 1.01391,-0.984339 1.65365,-1.240235 0.18094,-0.07238 0.2391,0.500567 0.41341,0.413412 0.52292,-0.261464 0.7173,-0.97877 1.24023,-1.240234 0.36977,-0.184884 0.83485,0.08108 1.24024,0 0.30215,-0.06043 0.55121,-0.275608 0.82682,-0.413412 0.55121,-0.275608 1.16062,-0.457056 1.65364,-0.826823 0.11025,-0.08268 0,-0.275608 0,-0.413411 0.41342,-0.137804 0.87765,-0.171688 1.24024,-0.413412 0.11466,-0.07644 -0.13781,-0.413411 0,-0.413411 1.57918,0 -1.17248,1.585891 0.82682,-0.413412 0.0974,-0.09744 -0.12325,0.351784 0,0.413412 0.24651,0.123255 0.63194,0.194884 0.82682,0 0.31472,-0.314713 -2.08349,-0.826823 0.41342,-0.826823 0.19488,0 -0.35179,0.228528 -0.41342,0.413411 -0.0872,0.261465 0.12326,0.580312 0,0.826823 -0.2756,0.275608 -0.55121,0.551215 -0.82682,0.826823 -0.1378,0 -0.31597,-0.09744 -0.41341,0 -2.88125,2.881248 0.11907,-0.06288 -0.41341,2.067057 -0.0945,0.378131 -0.62629,0.4926 -0.82682,0.826823 -0.22421,0.373673 -0.21853,0.850467 -0.41342,1.240235 -0.0872,0.174309 -0.32625,0.239102 -0.41341,0.413411 -0.19488,0.389768 -0.21852,0.850466 -0.41341,1.240234 -0.0872,0.17431 -0.41341,0.218527 -0.41341,0.413411 0,0.435775 0.49887,0.812925 0.41341,1.240235 -0.0764,0.382198 -0.62629,0.492601 -0.82682,0.826823 -0.22421,0.373673 -0.30772,0.817472 -0.41341,1.240234 -0.0669,0.26738 0,0.551217 0,0.826823 0,0.68902 0,1.37804 0,2.067057 0,0.68902 0,1.37804 0,2.067058 0,0.413411 -0.068,0.832447 0,1.240234 -1.73152,2.861543 0.6697,0.768874 0.82682,1.240234 0.13073,0.392197 -0.13073,0.848037 0,1.240235 0.0436,0.130733 0.29016,-0.06163 0.41341,0 0.17431,0.08716 0.32626,0.239101 0.41341,0.413411 0.19489,0.389768 0.15195,0.891617 0.41341,1.240234 0.0257,1.164059 0.9321,0.105273 1.24024,0.413412 0.21789,0.217887 0.31597,0.534498 0.41341,0.826823 0.0436,0.130733 -0.13781,0.413411 0,0.413411 0.30814,0 0.5345,-0.510852 0.82682,-0.413411 0.29233,0.09744 0.12109,0.729382 0.41341,0.826823 0.29233,0.09744 0.51869,-0.413412 0.82683,-0.413412 0.30814,0 0.53449,0.315971 0.82682,0.413412 0.26786,0.08929 1.7286,0 2.06706,0 0.40833,0 1.90407,0.08149 2.06706,0 0.17431,-0.08715 0.2756,-0.275606 0.41341,-0.413412 0.1378,-0.275606 0.1378,-0.689017 0.41341,-0.826823 0.36976,-0.184883 0.84804,0.130734 1.24023,0 0.13073,-0.04358 -0.12325,-0.351782 0,-0.413411 0.24651,-0.123256 0.59751,0.152879 0.82683,0 0.25638,-0.170924 0.31596,-0.534495 0.41341,-0.826823 0.0436,-0.130731 -0.13781,-0.413411 0,-0.413411 0.30814,0 0.53449,0.510854 0.82682,0.413411 0.29232,-0.09744 0.15702,-0.655897 0.41341,-0.826823 0.22932,-0.152879 0.5975,0.152879 0.82682,0 0.25639,-0.170923 0.13781,-0.689017 0.41342,-0.826823 0.17431,-0.08715 0.2756,0.551217 0.41341,0.413412 0.19488,-0.194885 -0.24652,-0.703567 0,-0.826823 0.27561,-0.137803 0.53449,0.510855 0.82682,0.413411 0.29232,-0.09744 0.19552,-0.608936 0.41341,-0.826823 0.0974,-0.09744 -0.0974,0.510855 0,0.413412 0.21789,-0.217887 0.19553,-0.608936 0.41341,-0.826823 0.0974,-0.09744 -0.1378,0.413411 0,0.413411 0.95008,0 0.82683,-0.317717 0.82683,-0.826823 0,-0.137803 -0.13781,-0.413411 0,-0.413411 0.19488,0 0.2756,0.275608 0.41341,0.413411"
       id="path3797"
       inkscape:connector-curvature="0" />
    <path
       style="fill:none;stroke:#000000;stroke-width:0.26458332px;stroke-linecap:butt;stroke-linejoin:miter;stroke-opacity:1"
       d="m -131.87825,42.751951 c -0.1378,0.275609 -0.31597,0.534496 -0.41341,0.826823 -0.0436,0.130733 0,0.275609 0,0.413412 0,0.275608 0,0.551217 0,0.826823 0,0.551217 0,1.102431 0,1.653645 0,2.204863 0,4.409723 0,6.614584 0,0.347054 -0.0444,2.805099 0,2.89388 0.1378,0.275608 0.63433,0.172796 0.82682,0.413411 0.38498,0.481232 0.48497,1.140873 0.82682,1.653646 0.32431,0.48646 0.93943,0.738899 1.24024,1.240234 0.31707,0.528455 0.44183,1.172414 0.82682,1.653646 0.19249,0.240618 0.58031,0.228529 0.82682,0.413412 0.62363,0.467722 1.03002,1.185926 1.65365,1.653645 0.24651,0.184883 0.58031,0.228529 0.82682,0.413412 0.31181,0.233862 0.55121,0.551217 0.82682,0.826823 0.13781,0.137805 0.22853,0.351785 0.41341,0.413411 0.26147,0.08716 0.59751,-0.152879 0.82683,0 0.25638,0.170926 0.1378,0.68902 0.41341,0.826823 0.17431,0.08716 0.22853,-0.351782 0.41341,-0.413411 0.26146,-0.08715 0.56536,-0.08715 0.82682,0 0.18489,0.06163 0.2391,0.326257 0.41341,0.413411 0.12326,0.06163 0.27561,0 0.41342,0 0.1378,0 0.2756,0 0.41341,0 0.41341,0 0.9479,0.292328 1.24023,0 0.40177,-0.401762 0.15932,-1.14545 0.41341,-1.653646 0.0616,-0.123256 0.31597,0.09744 0.41341,0 0.48721,-0.487209 0.80981,-1.115613 1.24024,-1.653645 0.48069,-0.600869 1.10869,-1.108689 1.65364,-1.653646 0.27561,-0.275606 0.50252,-0.610619 0.82683,-0.826823 0.11466,-0.07644 0.31597,0.09744 0.41341,0 0.21789,-0.217887 0.1378,-0.689017 0.41341,-0.826823 0.17431,-0.08715 0.27561,0.551217 0.41341,0.413411 0.19489,-0.194884 -0.12325,-0.58031 0,-0.826823 0.0616,-0.123256 0.35178,-0.123256 0.41341,0 0.12326,0.246513 0,0.551218 0,0.826823 0,0.826823 0,1.653646 0,2.480469 0,1.929254 0,3.858509 0,5.78776 0,0.551217 0,1.102432 0,1.653646 0,0.137806 -0.0436,0.282681 0,0.413412 0.0974,0.292327 0.31597,0.534498 0.41341,0.826823 0.0436,0.130733 0,0.275608 0,0.413411 0,0.413412 -0.10026,0.839166 0,1.240234 0.0473,0.189066 0.32626,0.239102 0.41342,0.413412 0.0616,0.123256 -0.0334,0.279723 0,0.413411 0.10569,0.422765 0.21852,0.850466 0.41341,1.240235 0.0871,0.17431 0.35178,0.228528 0.41341,0.413411 0.32747,0.98243 -0.48938,0.750851 0.41341,1.653646 0.0974,0.09744 0.31597,-0.09744 0.41341,0 0.0974,0.09744 -0.0616,0.290155 0,0.413411 0.20341,0.406811 1.45024,1.246839 1.65365,1.653646 0.28512,0.570243 -0.50067,0.369787 0.41341,0.826823 0.12326,0.06163 0.29015,-0.06163 0.41341,0 1.46715,0.733576 -0.64033,0.09325 0.82682,0.826823 0.12326,0.06163 0.29016,-0.06163 0.41342,0 0.17431,0.08716 0.2391,0.326258 0.41341,0.413411 0.12325,0.06163 0.31596,-0.09744 0.41341,0 0.21789,0.217888 0.1378,0.68902 0.41341,0.826823 0.17431,0.08716 0.2391,-0.326255 0.41341,-0.413411 0.12582,-0.06291 1.05405,0 1.24024,0 0.82682,0 1.65364,0 2.48046,0 0.27561,0 0.70357,0.246512 0.82683,0 0.1378,-0.275606 -0.6313,-0.608936 -0.41341,-0.826823 0.21788,-0.217887 0.53449,0.510855 0.82682,0.413411 0.292323,-0.09744 0.195523,-0.608935 0.41341,-0.826822 0.09744,-0.09744 0.413411,0.137805 0.413411,0 0,-0.194885 -0.413411,-0.218528 -0.413411,-0.413412 0,-0.194884 0.218527,-0.413411 0.413411,-0.413411 0.194884,0 0.218528,0.413411 0.413412,0.413411 0.137803,0 -0.06163,-0.290155 0,-0.413411 0.08715,-0.17431 0.326255,-0.239102 0.413411,-0.413412 0.06163,-0.123256 0,-0.275606 0,-0.413411 0,-0.137803 0.09744,-0.315968 0,-0.413412 -0.475038,-0.475038 -0.731128,-0.413411 -1.240234,-0.413411"
       id="path3799"
       inkscape:connector-curvature="0" />
    <path
       style="fill:none;stroke:#000000;stroke-width:0.26458332px;stroke-linecap:butt;stroke-linejoin:miter;stroke-opacity:1"
       d="m -99.632158,77.065102 c -2.618272,1.653646 -5.299042,3.212251 -7.854822,4.960937 -0.11373,0.07782 0.0436,0.282681 0,0.413412 0.24918,0.748249 -0.6697,0.768874 -0.82682,1.240234 -0.0872,0.261464 0.0668,0.559446 0,0.826823 0.24917,0.74825 -0.6697,0.768874 -0.82682,1.240234 -0.0872,0.261464 0.0871,0.565359 0,0.826823 -0.0616,0.184883 -0.35179,0.228529 -0.41342,0.413412 0,1.881968 0.19489,0.02365 -0.41341,1.240234 -0.0747,0.149503 0,1.779513 0,2.067057 0,0.826823 0,1.653646 0,2.480469 0,0.137806 -0.12325,0.351785 0,0.413412 1.60233,0.801161 3.3073,1.378037 4.96094,2.067057"
       id="path3801"
       inkscape:connector-curvature="0" />
    <path
       style="fill:none;stroke:#000000;stroke-width:0.28133991px;stroke-linecap:butt;stroke-linejoin:miter;stroke-opacity:1"
       d="m -248.13944,98.559854 39.3734,-42.463551 4.21858,2.885872 -39.84214,42.875815 z"
       id="path3803"
       inkscape:connector-curvature="0" />
    <path
       style="fill:none;stroke:#000000;stroke-width:0.30247518px;stroke-linecap:butt;stroke-linejoin:miter;stroke-opacity:1"
       d="m -240.50174,58.583495 -5.24215,6.561909 15.96475,13.944058 5.48043,-6.210378 z"
       id="path3805"
       inkscape:connector-curvature="0"
       sodipodi:nodetypes="ccccc" />
    <path
       style="fill:none;stroke:#000000;stroke-width:0.32641354px;stroke-linecap:butt;stroke-linejoin:miter;stroke-opacity:1"
       d="m -225.47485,82.029311 28.0032,24.964159 6.12164,-6.49068 -29.17543,-24.83934 z"
       id="path3835"
       inkscape:connector-curvature="0" />
    <ellipse
       style="fill:#000000;stroke-width:0.26458332"
       id="path3837"
       cx="-246.2382"
       cy="58.099854"
       rx="9.8701982"
       ry="8.4232588" />
    <ellipse
       style="fill:#000000;stroke-width:0.26458332"
       id="path3839"
       cx="-246.54825"
       cy="53.293945"
       rx="1.2919108"
       ry="0.82682288" />
  </g>
</svg>
